<svg width="53" height="12" viewBox="0 0 53 12" fill="none" xmlns="http://www.w3.org/2000/svg">
<rect x="50" width="8" height="2" transform="rotate(90 50 0)" fill="url(#paint0_linear_1015_459)"/>
<rect x="44" width="4" height="2" transform="rotate(90 44 0)" fill="url(#paint1_linear_1015_459)"/>
<rect x="38" width="8" height="2" transform="rotate(90 38 0)" fill="url(#paint2_linear_1015_459)"/>
<rect x="32" width="4" height="2" transform="rotate(90 32 0)" fill="url(#paint3_linear_1015_459)"/>
<rect x="26" width="8" height="2" transform="rotate(90 26 0)" fill="url(#paint4_linear_1015_459)"/>
<rect x="20" width="4" height="2" transform="rotate(90 20 0)" fill="url(#paint5_linear_1015_459)"/>
<rect x="14" width="8" height="2" transform="rotate(90 14 0)" fill="url(#paint6_linear_1015_459)"/>
<rect x="8" width="4" height="2" transform="rotate(90 8 0)" fill="url(#paint7_linear_1015_459)"/>
<rect x="2" width="12" height="2" transform="rotate(90 2 0)" fill="url(#paint8_linear_1015_459)"/>
<defs>
<linearGradient id="paint0_linear_1015_459" x1="58" y1="1" x2="50" y2="1" gradientUnits="userSpaceOnUse">
<stop/>
<stop offset="1" stop-color="#666666"/>
</linearGradient>
<linearGradient id="paint1_linear_1015_459" x1="48" y1="1" x2="44" y2="1" gradientUnits="userSpaceOnUse">
<stop/>
<stop offset="1" stop-color="#666666"/>
</linearGradient>
<linearGradient id="paint2_linear_1015_459" x1="46" y1="1" x2="38" y2="1" gradientUnits="userSpaceOnUse">
<stop/>
<stop offset="1" stop-color="#666666"/>
</linearGradient>
<linearGradient id="paint3_linear_1015_459" x1="36" y1="1" x2="32" y2="1" gradientUnits="userSpaceOnUse">
<stop/>
<stop offset="1" stop-color="#666666"/>
</linearGradient>
<linearGradient id="paint4_linear_1015_459" x1="34" y1="1" x2="26" y2="1" gradientUnits="userSpaceOnUse">
<stop/>
<stop offset="1" stop-color="#666666"/>
</linearGradient>
<linearGradient id="paint5_linear_1015_459" x1="24" y1="1" x2="20" y2="1" gradientUnits="userSpaceOnUse">
<stop/>
<stop offset="1" stop-color="#666666"/>
</linearGradient>
<linearGradient id="paint6_linear_1015_459" x1="22" y1="1" x2="14" y2="1" gradientUnits="userSpaceOnUse">
<stop/>
<stop offset="1" stop-color="#666666"/>
</linearGradient>
<linearGradient id="paint7_linear_1015_459" x1="12" y1="1" x2="8" y2="1" gradientUnits="userSpaceOnUse">
<stop/>
<stop offset="1" stop-color="#666666"/>
</linearGradient>
<linearGradient id="paint8_linear_1015_459" x1="14" y1="1" x2="2" y2="1" gradientUnits="userSpaceOnUse">
<stop/>
<stop offset="1" stop-color="#666666"/>
</linearGradient>
</defs>
</svg>
